PathFileType	4	(X/Y/Z)	Patient4_TMGait_0pt5_02_left_44.trc.trc
DataRate	CameraRate	NumFrames	NumMarkers	Units	OrigDataRate	OrigDataStartFrame	OrigNumFrames
77.348066298342	77.348066298342	4	33	mm	77.348066298342	1	       141
Frame#	Time	Sacral			L.Shoulder			Chest			R.Shoulder			Neck			R.ASIS			L.ASIS			R.Thigh.Superior			R.Thigh.Lateral			R.Thigh.Inferior			R.Patella			L.Thigh.Superior			L.Thigh.Lateral			L.Thigh.Inferior			L.Patella			L.Shank.Superior			L.Shank.Lateral			L.Shank.Inferior			R.Shank.Superior			R.Shank.Lateral			R.Shank.Inferior			R.Heel			R.Midfoot.Superior			R.Midfoot.Lateral			R.Toe			L.Heel			L.Midfoot.Lateral			L.Midfoot.Superior			L.Toe			L.Elbow			L.Wrist			R.Elbow			R.Wrist			
		X1	Y1	Z1	X2	Y2	Z2	X3	Y3	Z3	X4	Y4	Z4	X5	Y5	Z5	X6	Y6	Z6	X7	Y7	Z7	X8	Y8	Z8	X9	Y9	Z9	X10	Y10	Z10	X11	Y11	Z11	X12	Y12	Z12	X13	Y13	Z13	X14	Y14	Z14	X15	Y15	Z15	X16	Y16	Z16	X17	Y17	Z17	X18	Y18	Z18	X19	Y19	Z19	X20	Y20	Z20	X21	Y21	Z21	X22	Y22	Z22	X23	Y23	Z23	X24	Y24	Z24	X25	Y25	Z25	X26	Y26	Z26	X27	Y27	Z27	X28	Y28	Z28	X29	Y29	Z29	X30	Y30	Z30	X31	Y31	Z31	X32	Y32	Z32	X33	Y33	Z33	

1	56.730000000000	701.808787047288	1017.522673189294	517.173839046621	916.853853014337	1426.259012503960	336.449687982774	1005.861086962176	1356.296351794305	505.852766488883	917.052625578147	1439.911652446516	673.639791472982	912.514826809684	1493.606301131883	485.778875440731	919.295453431262	942.160329674724	650.113149047902	921.775371855171	957.654815758348	376.638061560861	962.722358098502	741.113455140871	621.371668805477	876.681954586133	634.507467307595	672.006814547845	955.853865554379	581.820722183637	593.415014837877	955.211055484994	493.153930424840	595.584484381216	996.677073240836	774.476431414188	413.851648318142	959.379034812564	653.837746609184	328.189510810933	1054.935297014634	588.656948391210	399.957828483850	1067.390459450660	497.740675861491	393.450526725646	998.748855730327	432.942843467839	378.341730855965	861.145000010529	396.987534342880	315.476568409023	837.658576552118	267.413384606448	365.685217239308	925.951128819087	405.433543680270	600.550249675948	853.336939351284	302.740197454491	661.363343914173	892.253375722511	207.932544297780	596.128233663554	753.554464091003	45.149307857307	568.308163913831	926.477708590323	97.404817697341	600.319115855520	838.725105022051	37.242128830025	640.595467675509	1047.011398383211	40.408570941481	623.710702975704	642.428888432509	225.692519341247	385.740787982841	697.945276614681	170.824283466332	309.648705130079	800.695985900392	158.562108120908	338.840000311066	858.204568084783	33.741340413513	314.652894843808	867.288463124113	1068.412328276289	236.143141081430	906.303775548772	812.734948001390	220.367837881668	890.765061292245	1102.050717051110	813.634157516848	1094.481633216095	941.879627787502	803.686299466618	
2	56.742928571429	700.112027407483	1018.233910845055	519.035914642485	915.525496958461	1426.106271033295	336.881178889424	1005.594859781398	1355.601756448845	505.452365489850	918.963710364861	1439.810168048364	673.924694673188	913.082266002549	1493.446128306518	486.115480788375	918.039517554155	941.830067227843	649.916407242838	918.576363724752	958.323694398965	376.390942670912	959.914433062112	740.559901107237	620.131949907506	873.599602421291	634.582633418926	671.859366282866	951.656982082534	581.358327134764	592.744260748355	950.153044446963	492.561954188828	594.977676960585	995.438818681886	777.773911859134	413.679198210995	959.750399577370	656.731794106495	327.871241677846	1056.458856640596	593.114721443958	399.179525456695	1070.747370997643	503.130994669779	392.450069606543	1005.311009605153	436.685429858105	376.854296730252	869.594611803434	393.734944568633	315.489310154437	854.627724802813	263.147951343299	364.571565207431	920.648194009131	405.033135283778	600.223347778141	847.746506223981	302.644980884525	661.222229786026	886.071468720089	207.635335627920	595.926412531923	746.705315928257	45.081497119625	568.320022286645	919.605232676769	97.339228787804	600.307407386139	831.855294176132	37.228340665056	640.605738274280	1040.135251256247	40.366655772384	623.770617514098	663.667928604896	208.686269672682	387.025381824408	720.893403398140	159.476594734668	309.096445687096	823.998418252536	154.035642120446	336.723057434412	889.067317617601	34.922438721350	309.162669750129	859.944399242010	1069.381536140209	236.187332633108	895.455342739235	813.302349048212	219.553220563812	898.752115335723	1102.977432469205	815.610538120346	1109.588665674145	956.222852286588	801.289889007996	
3	56.755857142857	698.441873102034	1018.942578137449	520.898509501260	914.172837246949	1425.971409840834	337.301827504706	1005.333126479824	1354.909015744586	505.014098255426	920.905493833004	1439.691257054249	674.194095958146	913.646185463298	1493.285820839473	486.447199328179	916.809375087321	941.495777869879	649.648497241359	915.369491334146	959.002691735284	376.091995046786	957.119451988003	740.004590911280	618.850064346527	870.532423863405	634.670430149782	671.684888187000	947.459537913911	580.905200694766	592.043700919565	945.108311481882	491.990060585925	594.357770325365	994.092799382632	780.975374945869	413.422290572022	959.892775519302	659.511404496011	327.531744950220	1057.697440656602	597.392100437665	398.402471237175	1073.808792653640	508.405778574717	391.466574016502	1011.641384703788	440.373113605062	375.427979358264	878.124062891501	390.317902770538	315.362935702308	871.690287987156	258.898936967790	363.466948572184	915.360196483104	404.640705355146	599.882399863359	842.185064647188	302.553214267437	661.076138744612	879.922781284255	207.345015804584	595.720382166823	739.905737043881	45.020634912819	568.332995969498	912.783625087975	97.274157374418	600.293582027256	825.036317111913	37.213760364476	640.617403879667	1033.310235770404	40.324335544282	623.829099963187	685.280981421393	191.660516996156	388.058266935377	744.279147731216	148.120940747105	308.462027595437	847.536138239004	149.588415211327	334.711266055805	920.173229962104	36.363536285182	304.073039918980	852.692313546159	1070.361377103874	236.232873151450	884.821178824434	813.901830502663	218.723537792379	906.690093172349	1103.878685225041	817.508351412211	1124.377796968657	970.486681296537	798.777690678341	
4	56.768785714286	696.818083218294	1019.647433410220	522.740119516150	912.780608772319	1425.870445949417	337.693104212912	1005.078066135204	1354.220472014065	504.498091818286	922.897081226304	1439.539965128145	674.421078802170	914.200964094951	1493.125398129265	486.758684384657	915.625963814223	941.149191689250	649.249098334779	912.154556646380	959.696667151658	375.690281100680	954.347083334088	739.442423681789	617.489275491359	867.493969647570	634.773408292639	671.453611480695	943.261411012620	580.463473285886	591.279107696863	940.091640836750	491.450973753911	593.704458519142	992.530709142323	783.971983301982	413.013644628885	959.610159529557	662.070698445097	327.128230900958	1058.386417480908	601.316559526390	397.623860796067	1076.290756323438	513.448595837799	390.508911697549	1017.499052340615	443.949191512317	374.101029476244	886.744305680371	386.648460187915	314.990975306733	888.824901654574	254.748182021253	362.384435478039	910.100795442629	404.261174346821	599.508625324818	836.676166413180	302.469149106963	660.916028885730	873.830690512983	207.067549104868	595.502656607597	733.188530631901	44.973389818899	568.348065368658	906.047472251004	97.210381287313	600.272792089077	818.303224149101	37.198859967997	640.631906372702	1026.570922699636	40.281663011713	623.883938577161	707.476734075641	174.761541903745	388.658533948286	768.343450797221	136.875038685817	307.710367840963	871.368126813980	145.365250114178	332.907173590348	951.521705489823	38.332899795788	299.753261493291	845.649736421446	1071.354099430801	236.272289682445	874.639478407674	814.554951204303	217.859405677448	914.531509243539	1104.726842829637	819.220325599528	1138.526770045236	984.549643205009	796.012630639182	
